<?xml version="1.0" encoding="UTF-8"?>
<svg id="icon_1" data-name="icon 1" xmlns="http://www.w3.org/2000/svg" viewBox="0 0 500 500">
  <defs>
    <style>
      .cls-1 {
        fill: #1d1d1b;
        stroke-width: 0px;
      }
    </style>
  </defs>
  <path class="cls-1" d="m248.82,380.81l-1.2-1.19-.16-.23-75.14-109.56c-24.55-35.79-22.65-83.71,4.63-116.53,17.68-21.27,42.66-33.37,70.33-34.07,1.76-.05,3.55-.05,5.32,0,26.68.68,51.05,12.06,68.63,32.05,29,32.98,31.59,81.7,6.3,118.48-7.7,11.19-20.37,29.78-32.62,47.76-10.45,15.33-20.99,30.8-28.96,42.43-3.99,5.82-7.33,10.69-9.7,14.1q-4.52,6.5-6.02,6.64l-1.4.13Zm1.12-255.62c-.84,0-1.67.01-2.5.03-25.92.66-49.31,11.99-65.87,31.91-25.57,30.76-27.34,75.71-4.3,109.3l72.74,106.06c6.29-9,24-34.98,39.94-58.36,12.26-17.98,24.93-36.57,32.63-47.78,23.73-34.51,21.32-80.2-5.86-111.11-16.46-18.72-39.29-29.38-64.28-30.02-.83-.02-1.67-.03-2.5-.03Z"/>
  <circle class="cls-1" cx="249.69" cy="211.69" r="29"/>
</svg>