<svg width="48" height="73" viewBox="0 0 48 73" fill="none" xmlns="http://www.w3.org/2000/svg">
<rect width="48" height="73" rx="24" fill="white"/>
<g clip-path="url(#clip0_258_58)">
<path d="M32.7695 23.061C32.4295 21.9398 31.9066 20.9754 31.1979 20.1679C30.4607 19.3052 29.632 18.7068 28.7148 18.3756C27.7947 18.0445 26.7974 17.8789 25.7201 17.8789C24.6429 17.8789 23.6456 18.1171 22.7255 18.5906C21.8054 19.0641 21.0481 19.7496 20.4538 20.6414V18.1374H14.7217V38.8601H20.4538V27.6361C20.4538 25.3907 20.5538 23.8076 20.751 22.8867C20.9767 21.8236 21.4739 20.9231 22.2369 20.1882C23.0027 19.4533 23.7942 19.0873 24.6143 19.0873C25.5201 19.0873 26.2345 19.5985 26.7603 20.621C27.2832 21.6435 27.5461 23.3922 27.5461 25.867V38.5725V49.2912C27.5461 50.8452 27.3746 52.0478 27.0374 52.896C26.6974 53.7442 25.9744 54.1683 24.8715 54.1683C24.42 54.1683 23.8942 54.0812 23.2998 53.9098L23.0455 54.7725C23.8113 55.002 24.5886 55.1182 25.3801 55.1182C28.0147 55.1182 30.0092 54.27 31.3694 52.5707C32.5009 51.2461 33.1382 49.3899 33.281 47.0022V38.8601V27.1161C33.281 25.533 33.1124 24.1794 32.7724 23.0581L32.7695 23.061ZM17.6077 43.6065C16.8162 43.6065 16.1361 43.897 15.5704 44.478C15.0046 45.0589 14.7217 45.7386 14.7217 46.5229C14.7217 47.3072 15.0046 48.0247 15.5704 48.5882C16.1361 49.1547 16.8162 49.4364 17.6077 49.4364C18.3993 49.4364 19.0736 49.1547 19.6251 48.5882C20.1766 48.0218 20.4538 47.3334 20.4538 46.5229C20.4538 45.7125 20.1709 45.0589 19.6051 44.478C19.0393 43.897 18.3735 43.6065 17.6077 43.6065Z" fill="#1D1D1B"/>
<path d="M24 73C10.767 73 0 62.0548 0 48.5999V24.3972C0 10.9452 10.767 0 24 0C37.233 0 48 10.9452 48 24.3972V48.5999C48 62.0519 37.233 72.9971 24 72.9971V73ZM24 0.7901C11.1956 0.787195 0.774378 11.3809 0.774378 24.3972V48.5999C0.774378 61.6191 11.1928 72.2099 24 72.2099C36.8072 72.2099 47.2256 61.6191 47.2256 48.5999V24.3972C47.2256 11.378 36.8072 0.787195 24 0.787195V0.7901Z" fill="#1D1D1B"/>
<path d="M23.9999 70.0837C12.3471 70.0837 2.86597 60.4456 2.86597 48.5999V24.3973C2.86597 12.5516 12.3471 2.91357 23.9999 2.91357C35.6527 2.91357 45.1339 12.5516 45.1339 24.3973V48.5999C45.1339 60.4456 35.6527 70.0837 23.9999 70.0837ZM23.9999 3.70077C12.7757 3.70367 3.6432 12.9873 3.6432 24.3973V48.5999C3.6432 60.0099 12.7757 69.2965 23.9999 69.2965C35.2241 69.2965 44.3566 60.0128 44.3566 48.5999V24.3973C44.3566 12.9873 35.2241 3.70367 23.9999 3.70367V3.70077Z" fill="#1D1D1B"/>
</g>
<defs>
<clipPath id="clip0_258_58">
<rect width="48" height="73" fill="white"/>
</clipPath>
</defs>
</svg>
