<svg width="241" height="257" viewBox="0 0 241 257" fill="none" xmlns="http://www.w3.org/2000/svg">
<path d="M240.73 237.75L173.39 170.41C187.66 152.46 196.2 129.76 196.2 105.1C196.2 47.15 149.05 0 91.1 0C33.15 0 -14 47.15 -14 105.1C-14 163.05 33.15 210.2 91.1 210.2C114.6 210.2 136.32 202.45 153.85 189.36L221.48 256.99L240.73 237.74V237.75ZM-8 105.11C-8 50.46 36.46 6.01 91.1 6.01C145.74 6.01 190.2 50.47 190.2 105.11C190.2 159.75 145.74 204.21 91.1 204.21C36.46 204.21 -8 159.75 -8 105.11Z" fill="#1D1D1B"/>
</svg>
