<svg width="190" height="262" viewBox="0 0 190 262" fill="none" xmlns="http://www.w3.org/2000/svg">
<path d="M93.6983 261.617L92.4983 260.427L92.3383 260.198L17.1984 150.637C-7.35165 114.847 -5.45166 66.9275 21.8283 34.1075C39.5083 12.8375 64.4883 0.7375 92.1583 0.0375C93.9183 -0.0125 95.7083 -0.0125 97.4783 0.0375C124.158 0.7175 148.528 12.0975 166.108 32.0875C195.108 65.0675 197.698 113.788 172.408 150.568C164.708 161.758 152.038 180.347 139.788 198.327C129.338 213.657 118.798 229.128 110.828 240.758C106.838 246.578 103.498 251.447 101.128 254.857C98.115 259.191 96.1083 261.404 95.1083 261.497L93.7083 261.628L93.6983 261.617ZM94.8183 5.9975C93.9783 5.9975 93.1483 6.0075 92.3183 6.0275C66.3983 6.6875 43.0084 18.0175 26.4484 37.9375C0.878351 68.6975 -0.891653 113.647 22.1483 147.237L94.8883 253.297C101.178 244.297 118.888 218.317 134.828 194.938C147.088 176.958 159.758 158.368 167.458 147.158C191.188 112.648 188.778 66.9575 161.598 36.0475C145.138 17.3275 122.308 6.6675 97.3183 6.0275C96.4883 6.0075 95.6483 5.9975 94.8183 5.9975Z" fill="#1D1D1B"/>
<path d="M94.5684 121.498C110.585 121.498 123.568 108.514 123.568 92.4976C123.568 76.4813 110.585 63.4976 94.5684 63.4976C78.5521 63.4976 65.5684 76.4813 65.5684 92.4976C65.5684 108.514 78.5521 121.498 94.5684 121.498Z" fill="#1D1D1B"/>
</svg>
